<svg width="296" height="50" viewBox="0 0 296 50" fill="none" xmlns="http://www.w3.org/2000/svg">
<g clip-path="url(#clip0_1_2)">
<path d="M113.296 8.608C114.256 8.608 115.012 8.896 115.564 9.472C116.14 10.048 116.428 10.696 116.428 11.416C116.428 12.232 116.188 12.952 115.708 13.576C115.228 14.2 114.544 14.704 113.656 15.088C112.912 15.4 112.024 15.652 110.992 15.844C109.984 16.012 108.832 16.096 107.536 16.096C106.72 16.096 105.796 16.06 104.764 15.988C103.732 15.892 102.664 15.796 101.56 15.7C100.456 15.604 99.376 15.52 98.32 15.448C97.264 15.352 96.292 15.304 95.404 15.304C94.564 15.304 93.784 15.352 93.064 15.448C92.344 15.544 91.768 15.7 91.336 15.916C92.104 16.06 92.74 16.42 93.244 16.996C93.772 17.548 94.036 18.256 94.036 19.12C94.036 20.056 93.736 20.848 93.136 21.496C92.536 22.12 91.78 22.432 90.868 22.432C89.932 22.432 89.212 22.12 88.708 21.496C88.204 20.848 87.952 20.104 87.952 19.264C87.952 18.664 88.12 18.016 88.456 17.32C88.816 16.6 89.476 16 90.436 15.52C91.012 15.232 91.6 15.028 92.2 14.908C92.824 14.788 93.412 14.716 93.964 14.692C94.516 14.668 94.948 14.656 95.26 14.656C96.772 14.656 98.26 14.716 99.724 14.836C101.188 14.956 102.604 15.076 103.972 15.196C105.364 15.316 106.672 15.376 107.896 15.376C108.784 15.376 109.528 15.34 110.128 15.268C110.728 15.172 111.268 15.052 111.748 14.908L111.676 15.232C111.268 14.896 110.896 14.452 110.56 13.9C110.248 13.324 110.092 12.652 110.092 11.884C110.092 10.9 110.38 10.108 110.956 9.508C111.556 8.908 112.336 8.608 113.296 8.608ZM99.688 15.232C99.688 15.232 99.904 15.256 100.336 15.304C100.768 15.328 101.296 15.364 101.92 15.412C102.568 15.46 103.204 15.508 103.828 15.556C104.452 15.604 104.98 15.652 105.412 15.7C105.844 15.724 106.06 15.736 106.06 15.736L100.732 35.824C100.516 36.688 100.444 37.36 100.516 37.84C100.588 38.32 100.852 38.668 101.308 38.884C101.788 39.076 102.496 39.208 103.432 39.28L103.288 40C102.496 39.952 101.464 39.928 100.192 39.928C98.92 39.904 97.588 39.892 96.196 39.892C94.876 39.892 93.616 39.904 92.416 39.928C91.216 39.928 90.244 39.952 89.5 40L89.644 39.28C90.652 39.232 91.444 39.112 92.02 38.92C92.62 38.704 93.076 38.356 93.388 37.876C93.724 37.372 94 36.688 94.216 35.824L99.688 15.232ZM113.407 40H107.683L112.075 24.412C112.243 23.812 112.291 23.392 112.219 23.152C112.171 22.888 112.003 22.756 111.715 22.756C111.307 22.756 110.935 22.948 110.599 23.332C110.263 23.692 109.915 24.352 109.555 25.312L108.799 27.328H108.115L109.123 24.556C109.459 23.62 109.879 22.888 110.383 22.36C110.887 21.808 111.475 21.424 112.147 21.208C112.819 20.968 113.527 20.848 114.271 20.848C115.063 20.848 115.675 21.004 116.107 21.316C116.563 21.604 116.875 22 117.043 22.504C117.235 23.008 117.319 23.56 117.295 24.16C117.295 24.736 117.223 25.312 117.079 25.888L113.407 40ZM122.623 21.604C122.143 21.604 121.639 21.712 121.111 21.928C120.583 22.144 120.031 22.588 119.455 23.26C118.879 23.932 118.267 24.928 117.619 26.248C116.995 27.544 116.335 29.284 115.639 31.468C114.943 33.628 114.223 36.328 113.479 39.568L114.271 34.6C115.015 31.888 115.687 29.656 116.287 27.904C116.911 26.128 117.523 24.724 118.123 23.692C118.747 22.636 119.419 21.904 120.139 21.496C120.859 21.064 121.687 20.848 122.623 20.848C123.655 20.848 124.447 21.16 124.999 21.784C125.551 22.384 125.827 23.14 125.827 24.052C125.827 24.772 125.659 25.456 125.323 26.104C125.011 26.728 124.567 27.232 123.991 27.616C123.439 27.976 122.803 28.156 122.083 28.156C121.291 28.156 120.679 27.952 120.247 27.544C119.839 27.136 119.635 26.536 119.635 25.744C119.635 25.096 119.791 24.496 120.103 23.944C120.415 23.368 120.835 22.888 121.363 22.504C121.891 22.096 122.467 21.832 123.091 21.712C123.019 21.688 122.947 21.664 122.875 21.64C122.803 21.616 122.719 21.604 122.623 21.604ZM131.215 38.308C131.503 38.308 131.827 38.164 132.187 37.876C132.547 37.564 132.919 37.096 133.303 36.472C133.687 35.848 134.083 35.044 134.491 34.06C134.899 33.076 135.295 31.888 135.679 30.496L134.779 34.384C134.299 35.92 133.735 37.144 133.087 38.056C132.439 38.944 131.719 39.58 130.927 39.964C130.159 40.324 129.343 40.504 128.479 40.504C127.039 40.504 125.971 40.108 125.275 39.316C124.579 38.524 124.231 37.432 124.231 36.04C124.231 34.696 124.459 33.316 124.915 31.9C125.371 30.46 125.983 29.092 126.751 27.796C127.543 26.476 128.419 25.3 129.379 24.268C130.363 23.212 131.383 22.384 132.439 21.784C133.519 21.16 134.575 20.848 135.607 20.848C136.399 20.848 136.999 21.124 137.407 21.676C137.839 22.228 137.983 23.14 137.839 24.412L137.443 24.628C137.563 23.884 137.539 23.332 137.371 22.972C137.227 22.588 136.963 22.396 136.579 22.396C136.123 22.396 135.619 22.672 135.067 23.224C134.515 23.752 133.951 24.484 133.375 25.42C132.823 26.332 132.307 27.388 131.827 28.588C131.371 29.764 130.999 31.012 130.711 32.332C130.423 33.652 130.279 34.948 130.279 36.22C130.279 36.964 130.351 37.504 130.495 37.84C130.639 38.152 130.879 38.308 131.215 38.308ZM138.343 21.388C139.519 21.364 140.563 21.316 141.475 21.244C142.411 21.148 143.323 21.016 144.211 20.848L139.423 36.94C139.327 37.276 139.267 37.576 139.243 37.84C139.243 38.08 139.291 38.272 139.387 38.416C139.507 38.536 139.675 38.596 139.891 38.596C140.155 38.596 140.467 38.44 140.827 38.128C141.187 37.816 141.571 37.12 141.979 36.04L142.663 34.168H143.347L142.447 36.796C142.111 37.78 141.667 38.548 141.115 39.1C140.563 39.628 139.975 39.988 139.351 40.18C138.727 40.396 138.103 40.504 137.479 40.504C136.135 40.504 135.175 40.108 134.599 39.316C134.239 38.788 134.059 38.128 134.059 37.336C134.059 36.544 134.215 35.608 134.527 34.528L138.343 21.388ZM161.646 28.732C160.566 28.228 159.654 27.532 158.91 26.644C158.166 25.732 157.806 24.688 157.83 23.512C157.83 22.672 158.058 22.024 158.514 21.568C158.994 21.088 159.618 20.848 160.386 20.848C161.322 20.848 161.994 21.196 162.402 21.892C162.81 22.564 162.99 23.488 162.942 24.664C162.918 26.008 162.738 27.424 162.402 28.912C162.09 30.376 161.622 31.792 160.998 33.16C160.398 34.528 159.63 35.764 158.694 36.868C157.758 37.972 156.666 38.86 155.418 39.532C154.17 40.18 152.742 40.504 151.134 40.504C149.742 40.504 148.65 40.288 147.858 39.856C147.066 39.4 146.514 38.836 146.202 38.164C145.89 37.468 145.734 36.76 145.734 36.04C145.758 34.528 146.202 33.004 147.066 31.468C147.954 29.932 149.154 28.408 150.666 26.896C152.202 25.36 153.918 23.848 155.814 22.36C155.142 22.408 154.554 22.6 154.05 22.936C153.57 23.248 153.126 23.608 152.718 24.016C152.31 24.4 151.902 24.748 151.494 25.06C151.11 25.348 150.678 25.492 150.198 25.492C149.814 25.492 149.478 25.396 149.19 25.204C148.902 24.988 148.578 24.88 148.218 24.88C147.906 24.88 147.654 25 147.462 25.24C147.27 25.48 147.09 25.876 146.922 26.428L146.634 27.292H145.95L146.742 24.664C147.174 23.152 147.69 22.132 148.29 21.604C148.89 21.076 149.502 20.812 150.126 20.812C150.582 20.812 150.978 20.908 151.314 21.1C151.65 21.268 152.01 21.448 152.394 21.64C152.802 21.832 153.33 21.928 153.978 21.928C154.266 21.928 154.626 21.892 155.058 21.82C155.49 21.724 155.946 21.544 156.426 21.28L156.786 20.596L157.542 20.956C156.726 22.228 155.97 23.548 155.274 24.916C154.602 26.26 154.014 27.604 153.51 28.948C153.03 30.292 152.646 31.576 152.358 32.8C152.094 34 151.95 35.068 151.926 36.004C151.926 36.94 152.046 37.636 152.286 38.092C152.55 38.524 152.982 38.74 153.582 38.74C154.398 38.74 155.166 38.548 155.886 38.164C156.63 37.78 157.302 37.252 157.902 36.58C158.526 35.884 159.078 35.116 159.558 34.276C160.062 33.412 160.482 32.512 160.818 31.576C161.178 30.616 161.454 29.668 161.646 28.732ZM168.971 32.332C169.859 31.948 170.711 31.516 171.527 31.036C172.343 30.532 173.063 29.992 173.687 29.416C174.623 28.528 175.391 27.508 175.991 26.356C176.591 25.18 176.891 23.92 176.891 22.576C176.891 22.168 176.843 21.892 176.747 21.748C176.651 21.604 176.507 21.532 176.315 21.532C175.811 21.532 175.259 21.808 174.659 22.36C174.059 22.888 173.471 23.608 172.895 24.52C172.319 25.408 171.791 26.428 171.311 27.58C170.855 28.708 170.483 29.884 170.195 31.108C169.907 32.308 169.763 33.484 169.763 34.636C169.763 36.004 170.027 36.928 170.555 37.408C171.107 37.888 171.815 38.128 172.679 38.128C173.231 38.128 173.987 37.936 174.947 37.552C175.907 37.144 176.855 36.424 177.791 35.392L178.367 35.68C177.863 36.472 177.191 37.24 176.351 37.984C175.511 38.728 174.527 39.34 173.399 39.82C172.271 40.276 171.023 40.504 169.655 40.504C168.551 40.504 167.543 40.312 166.631 39.928C165.743 39.544 165.035 38.98 164.507 38.236C163.979 37.468 163.715 36.532 163.715 35.428C163.715 34.084 163.931 32.728 164.363 31.36C164.795 29.992 165.407 28.684 166.199 27.436C166.991 26.164 167.939 25.036 169.043 24.052C170.171 23.068 171.407 22.288 172.751 21.712C174.095 21.136 175.547 20.848 177.107 20.848C178.259 20.848 179.231 21.1 180.023 21.604C180.815 22.084 181.211 22.84 181.211 23.872C181.211 24.784 180.959 25.648 180.455 26.464C179.951 27.256 179.267 27.988 178.403 28.66C177.563 29.332 176.603 29.932 175.523 30.46C174.467 30.988 173.375 31.444 172.247 31.828C171.119 32.212 170.015 32.512 168.935 32.728L168.971 32.332ZM186.733 36.94C186.541 37.54 186.517 37.972 186.661 38.236C186.829 38.476 187.045 38.596 187.309 38.596C187.501 38.596 187.777 38.452 188.137 38.164C188.521 37.876 188.917 37.168 189.325 36.04L190.009 34.168H190.693L189.793 36.796C189.433 37.804 188.977 38.572 188.425 39.1C187.873 39.628 187.285 39.988 186.661 40.18C186.037 40.396 185.425 40.504 184.825 40.504C184.057 40.504 183.409 40.36 182.881 40.072C182.353 39.808 181.957 39.424 181.693 38.92C181.429 38.416 181.297 37.804 181.297 37.084C181.297 36.34 181.441 35.488 181.729 34.528L187.309 15.988C187.549 15.172 187.525 14.572 187.237 14.188C186.949 13.804 186.217 13.612 185.041 13.612L185.293 12.856C187.141 12.832 188.773 12.7 190.189 12.46C191.605 12.196 192.973 11.836 194.293 11.38L186.733 36.94ZM213.157 39.784C213.589 39.784 214.009 39.736 214.417 39.64C214.825 39.52 215.173 39.364 215.461 39.172C215.869 38.884 216.157 38.536 216.325 38.128C216.517 37.72 216.709 37.144 216.901 36.4L217.729 33.232C217.993 32.248 218.089 31.516 218.017 31.036C217.969 30.556 217.705 30.232 217.225 30.064C216.769 29.896 216.037 29.8 215.029 29.776L215.209 29.056C215.737 29.08 216.373 29.104 217.117 29.128C217.861 29.128 218.641 29.14 219.457 29.164C220.273 29.164 221.017 29.164 221.689 29.164C222.817 29.164 223.861 29.152 224.821 29.128C225.805 29.104 226.597 29.08 227.197 29.056L227.017 29.776C226.489 29.8 226.069 29.884 225.757 30.028C225.469 30.172 225.217 30.46 225.001 30.892C224.809 31.324 224.593 31.984 224.353 32.872L222.445 40H221.725C221.773 39.304 221.689 38.788 221.473 38.452C221.281 38.116 220.957 37.948 220.501 37.948C219.949 37.948 219.361 38.104 218.737 38.416C218.113 38.728 217.513 39.016 216.937 39.28C216.025 39.736 215.173 40.048 214.381 40.216C213.613 40.408 212.821 40.504 212.005 40.504C208.837 40.504 206.353 39.784 204.553 38.344C202.753 36.904 201.853 34.876 201.853 32.26C201.853 30.628 202.129 28.96 202.681 27.256C203.233 25.552 204.025 23.908 205.057 22.324C206.089 20.74 207.337 19.324 208.801 18.076C210.265 16.828 211.909 15.844 213.733 15.124C215.557 14.38 217.525 14.008 219.637 14.008C221.197 14.008 222.397 14.236 223.237 14.692C224.101 15.148 224.869 15.7 225.541 16.348C225.901 16.708 226.237 16.768 226.549 16.528C226.861 16.288 227.209 15.616 227.593 14.512H228.385C228.025 15.448 227.653 16.588 227.269 17.932C226.885 19.252 226.489 20.872 226.081 22.792H225.289C225.337 22.312 225.373 21.856 225.397 21.424C225.445 20.968 225.469 20.524 225.469 20.092C225.469 19.588 225.433 19.132 225.361 18.724C225.313 18.316 225.181 17.896 224.965 17.464C224.509 16.552 223.801 15.856 222.841 15.376C221.905 14.896 220.765 14.656 219.421 14.656C217.981 14.656 216.673 15.088 215.497 15.952C214.345 16.792 213.313 17.92 212.401 19.336C211.513 20.728 210.769 22.264 210.169 23.944C209.593 25.6 209.149 27.268 208.837 28.948C208.525 30.604 208.369 32.104 208.369 33.448C208.369 35.608 208.765 37.204 209.557 38.236C210.373 39.268 211.573 39.784 213.157 39.784ZM232.885 32.332C233.773 31.948 234.625 31.516 235.441 31.036C236.257 30.532 236.977 29.992 237.601 29.416C238.537 28.528 239.305 27.508 239.905 26.356C240.505 25.18 240.805 23.92 240.805 22.576C240.805 22.168 240.757 21.892 240.661 21.748C240.565 21.604 240.421 21.532 240.229 21.532C239.725 21.532 239.173 21.808 238.573 22.36C237.973 22.888 237.385 23.608 236.809 24.52C236.233 25.408 235.705 26.428 235.225 27.58C234.769 28.708 234.397 29.884 234.109 31.108C233.821 32.308 233.677 33.484 233.677 34.636C233.677 36.004 233.941 36.928 234.469 37.408C235.021 37.888 235.729 38.128 236.593 38.128C237.145 38.128 237.901 37.936 238.861 37.552C239.821 37.144 240.769 36.424 241.705 35.392L242.281 35.68C241.777 36.472 241.105 37.24 240.265 37.984C239.425 38.728 238.441 39.34 237.313 39.82C236.185 40.276 234.937 40.504 233.569 40.504C232.465 40.504 231.457 40.312 230.545 39.928C229.657 39.544 228.949 38.98 228.421 38.236C227.893 37.468 227.629 36.532 227.629 35.428C227.629 34.084 227.845 32.728 228.277 31.36C228.709 29.992 229.321 28.684 230.113 27.436C230.905 26.164 231.853 25.036 232.957 24.052C234.085 23.068 235.321 22.288 236.665 21.712C238.009 21.136 239.461 20.848 241.021 20.848C242.173 20.848 243.145 21.1 243.937 21.604C244.729 22.084 245.125 22.84 245.125 23.872C245.125 24.784 244.873 25.648 244.369 26.464C243.865 27.256 243.181 27.988 242.317 28.66C241.477 29.332 240.517 29.932 239.437 30.46C238.381 30.988 237.289 31.444 236.161 31.828C235.033 32.212 233.929 32.512 232.849 32.728L232.885 32.332ZM251.079 40H245.355L249.747 24.412C249.867 24.052 249.939 23.752 249.963 23.512C249.987 23.272 249.951 23.092 249.855 22.972C249.783 22.828 249.627 22.756 249.387 22.756C248.979 22.756 248.607 22.936 248.271 23.296C247.959 23.656 247.611 24.328 247.227 25.312L246.471 27.328H245.787L246.795 24.556C247.251 23.236 247.875 22.288 248.667 21.712C249.459 21.136 250.431 20.848 251.583 20.848C252.471 20.848 253.167 21.004 253.671 21.316C254.199 21.604 254.559 22 254.751 22.504C254.943 23.008 255.027 23.56 255.003 24.16C254.979 24.736 254.895 25.312 254.751 25.888L251.079 40ZM252.087 34.384C253.047 31.6 253.935 29.332 254.751 27.58C255.567 25.828 256.359 24.46 257.127 23.476C257.919 22.468 258.723 21.784 259.539 21.424C260.379 21.04 261.267 20.848 262.203 20.848C263.379 20.848 264.231 21.1 264.759 21.604C265.287 22.084 265.563 22.744 265.587 23.584C265.611 24.4 265.455 25.3 265.119 26.284L261.555 36.94C261.339 37.612 261.303 38.056 261.447 38.272C261.591 38.488 261.783 38.596 262.023 38.596C262.287 38.596 262.599 38.452 262.959 38.164C263.319 37.852 263.703 37.144 264.111 36.04L264.795 34.168H265.479L264.579 36.796C264.243 37.804 263.799 38.572 263.247 39.1C262.719 39.628 262.131 39.988 261.483 40.18C260.859 40.396 260.235 40.504 259.611 40.504C258.891 40.504 258.267 40.396 257.739 40.18C257.235 39.964 256.839 39.652 256.551 39.244C256.215 38.764 256.035 38.152 256.011 37.408C256.011 36.664 256.203 35.704 256.587 34.528L259.755 25.024C259.899 24.616 259.995 24.256 260.043 23.944C260.091 23.608 260.079 23.344 260.007 23.152C259.935 22.96 259.779 22.864 259.539 22.864C259.107 22.864 258.615 23.176 258.063 23.8C257.511 24.424 256.935 25.276 256.335 26.356C255.735 27.436 255.123 28.684 254.499 30.1C253.875 31.516 253.275 33.028 252.699 34.636C252.147 36.22 251.667 37.816 251.259 39.424L252.087 34.384ZM273.267 15.52C273.291 14.368 273.687 13.492 274.455 12.892C275.247 12.292 276.195 11.992 277.299 11.992C278.283 11.992 279.015 12.208 279.495 12.64C279.999 13.048 280.239 13.648 280.215 14.44C280.191 15.448 279.783 16.276 278.991 16.924C278.223 17.572 277.275 17.896 276.147 17.896C275.211 17.896 274.491 17.692 273.987 17.284C273.483 16.852 273.243 16.264 273.267 15.52ZM271.827 24.412C272.211 23.308 272.091 22.756 271.467 22.756C271.083 22.756 270.723 22.948 270.387 23.332C270.051 23.716 269.691 24.376 269.307 25.312L268.551 27.328H267.867L268.875 24.556C269.211 23.62 269.631 22.888 270.135 22.36C270.663 21.808 271.263 21.424 271.935 21.208C272.607 20.968 273.315 20.848 274.059 20.848C274.947 20.848 275.643 21.004 276.147 21.316C276.651 21.628 277.011 22.036 277.227 22.54C277.443 23.02 277.539 23.56 277.515 24.16C277.491 24.736 277.383 25.312 277.191 25.888L273.411 36.94C273.219 37.564 273.171 37.996 273.267 38.236C273.387 38.476 273.591 38.596 273.879 38.596C274.143 38.596 274.455 38.44 274.815 38.128C275.175 37.816 275.559 37.12 275.967 36.04L276.651 34.168H277.335L276.435 36.796C276.075 37.78 275.631 38.548 275.103 39.1C274.575 39.628 273.987 39.988 273.339 40.18C272.691 40.396 272.055 40.504 271.431 40.504C270.375 40.504 269.547 40.276 268.947 39.82C268.347 39.364 267.999 38.692 267.903 37.804C267.807 36.916 267.975 35.824 268.407 34.528L271.827 24.412ZM284.143 32.332C285.031 31.948 285.883 31.516 286.699 31.036C287.515 30.532 288.235 29.992 288.859 29.416C289.795 28.528 290.563 27.508 291.163 26.356C291.763 25.18 292.063 23.92 292.063 22.576C292.063 22.168 292.015 21.892 291.919 21.748C291.823 21.604 291.679 21.532 291.487 21.532C290.983 21.532 290.431 21.808 289.831 22.36C289.231 22.888 288.643 23.608 288.067 24.52C287.491 25.408 286.963 26.428 286.483 27.58C286.027 28.708 285.655 29.884 285.367 31.108C285.079 32.308 284.935 33.484 284.935 34.636C284.935 36.004 285.199 36.928 285.727 37.408C286.279 37.888 286.987 38.128 287.851 38.128C288.403 38.128 289.159 37.936 290.119 37.552C291.079 37.144 292.027 36.424 292.963 35.392L293.539 35.68C293.035 36.472 292.363 37.24 291.523 37.984C290.683 38.728 289.699 39.34 288.571 39.82C287.443 40.276 286.195 40.504 284.827 40.504C283.723 40.504 282.715 40.312 281.803 39.928C280.915 39.544 280.207 38.98 279.679 38.236C279.151 37.468 278.887 36.532 278.887 35.428C278.887 34.084 279.103 32.728 279.535 31.36C279.967 29.992 280.579 28.684 281.371 27.436C282.163 26.164 283.111 25.036 284.215 24.052C285.343 23.068 286.579 22.288 287.923 21.712C289.267 21.136 290.719 20.848 292.279 20.848C293.431 20.848 294.403 21.1 295.195 21.604C295.987 22.084 296.383 22.84 296.383 23.872C296.383 24.784 296.131 25.648 295.627 26.464C295.123 27.256 294.439 27.988 293.575 28.66C292.735 29.332 291.775 29.932 290.695 30.46C289.639 30.988 288.547 31.444 287.419 31.828C286.291 32.212 285.187 32.512 284.107 32.728L284.143 32.332Z" fill="#FFB8B8"/>
<path fill-rule="evenodd" clip-rule="evenodd" d="M31.7611 16.2101C32.0102 16.2101 32.2464 16.2534 32.4758 16.3163V15.2619C32.4758 14.823 32.1169 14.4636 31.6772 14.4636C31.2384 14.4636 30.8785 14.8235 30.8785 15.2619V16.3159C31.1076 16.2538 31.3446 16.2096 31.5928 16.2096L31.7611 16.2101Z" fill="white"/>
<path fill-rule="evenodd" clip-rule="evenodd" d="M27.3131 23.8901C27.7082 23.3512 27.906 22.7209 27.9109 21.9847C27.9114 21.9374 27.9114 21.89 27.9114 21.8418C27.9114 21.0244 28.277 20.499 28.7899 20.2718C29.1663 20.1048 29.4131 19.6914 29.4363 19.1869C29.5042 17.7436 30.456 16.5923 31.6118 16.5923H31.5943C30.1301 16.5923 28.9256 17.7432 28.839 19.1869C28.8091 19.6914 28.4971 20.1053 28.0203 20.2718C27.3707 20.499 26.9078 21.0244 26.9078 21.8418C26.9078 21.8892 26.9078 21.9365 26.9074 21.9847C26.9011 22.72 26.6507 23.3512 26.1502 23.8901C25.8377 24.2276 25.6158 24.6445 25.4953 25.1017C25.9069 25.1691 26.3279 25.2272 26.7547 25.2803C26.8364 24.7504 27.0337 24.2714 27.3132 23.8901L27.3131 23.8901Z" fill="white"/>
<path fill-rule="evenodd" clip-rule="evenodd" d="M31.744 16.5929C32.9016 16.5929 33.8529 17.7438 33.9199 19.1876C33.9435 19.692 34.19 20.1059 34.5663 20.2724C35.0801 20.4996 35.4449 21.0251 35.4449 21.8424V21.9853C35.4498 22.7206 35.6484 23.3518 36.044 23.8907C36.3315 24.2831 36.5292 24.7804 36.6051 25.3286C37.0261 25.2871 37.4476 25.2366 37.8815 25.1732C37.7676 24.6866 37.5351 24.246 37.2051 23.8906C36.7051 23.3518 36.4551 22.7215 36.4484 21.9852C36.4484 21.9379 36.4471 21.8906 36.4471 21.8424C36.4471 21.025 35.9846 20.4995 35.3346 20.2723C34.8583 20.1054 34.5462 19.692 34.5158 19.1875C34.4306 17.7442 33.2257 16.5929 31.7605 16.5929L31.744 16.5929Z" fill="white"/>
<path fill-rule="evenodd" clip-rule="evenodd" d="M34.6651 21.9849V21.8421C34.6651 21.0247 34.3754 20.4992 33.9687 20.272C33.67 20.1051 33.4754 19.6917 33.4548 19.1872C33.4013 17.7439 32.6472 16.5926 31.7298 16.5926H31.624C30.7071 16.5926 29.953 17.7434 29.899 19.1872C29.8802 19.6917 29.6847 20.1055 29.3865 20.272C28.9793 20.4993 28.6896 21.0247 28.6896 21.8421C28.6896 21.8894 28.6896 21.9367 28.6892 21.9849C28.6851 22.7202 28.5285 23.3514 28.2155 23.8903C27.9793 24.2965 27.8227 24.8153 27.7668 25.3867C28.9151 25.4948 30.1142 25.5555 31.3905 25.5376C33.0409 25.5167 34.3485 25.4966 35.5896 25.414C35.5369 24.8314 35.3784 24.3028 35.1396 23.8903C34.8266 23.351 34.669 22.7207 34.665 21.985L34.6651 21.9849Z" fill="white"/>
<path fill-rule="evenodd" clip-rule="evenodd" d="M35.1428 43.0226C33.9468 42.874 33.0602 41.87 33.0602 40.6641V39.9686C32.5151 40.028 31.9616 40.0673 31.3923 40.0628C30.8053 40.0583 30.2406 40.007 29.686 39.9342V40.6378C29.686 41.8512 28.7874 42.8596 27.5825 42.9989C25.674 43.219 24.4075 43.6061 24.4075 44.0467C24.4075 44.7328 27.4763 45.2891 31.2624 45.2891C35.0481 45.2891 38.1172 44.7328 38.1172 44.0467C38.1177 43.6212 36.9387 43.2467 35.1427 43.0226L35.1428 43.0226ZM33.7625 44.4315C33.0228 44.5329 32.1599 44.5865 31.2665 44.5865C29.8129 44.5865 28.4415 44.4405 27.5969 44.1981C27.4764 44.1628 27.4067 44.0374 27.4415 43.9173C27.4768 43.7967 27.6027 43.7258 27.7219 43.7624C28.529 43.9945 29.8536 44.1333 31.267 44.1333C32.1394 44.1333 32.9818 44.0807 33.7014 43.9825C33.8238 43.965 33.9403 44.0521 33.9572 44.1771C33.9738 44.3003 33.888 44.4141 33.7626 44.4316L33.7625 44.4315ZM35.4866 43.9878C35.2857 44.094 35.004 44.1887 34.6527 44.2713C34.6353 44.2753 34.6174 44.2775 34.6 44.2775C34.4978 44.2775 34.4036 44.2066 34.3799 44.1021C34.3509 43.9807 34.4259 43.8574 34.5487 43.8293C34.8585 43.757 35.1098 43.6726 35.2763 43.586C35.3866 43.5289 35.5255 43.5713 35.583 43.6807C35.6402 43.7927 35.5973 43.9302 35.4866 43.9878L35.4866 43.9878Z" fill="white"/>
<path fill-rule="evenodd" clip-rule="evenodd" d="M31.68 30.5929C38.6175 30.5929 43.0912 28.1192 47.0377 25.9371C49.9426 24.3309 52.5126 22.9175 55.414 22.9484C55.1636 22.8247 54.9037 22.7198 54.6189 22.664C51.8426 22.1193 47.0002 23.66 42.4864 24.8666C37.756 26.1327 35.7899 26.1689 31.3913 26.2277C23.0346 26.3398 17.5273 23.5116 12.8484 21.6179C13.398 22.0581 13.9601 22.5273 14.5417 23.0153C18.5716 26.3912 23.5864 30.593 31.68 30.593V30.5929Z" fill="white"/>
<path fill-rule="evenodd" clip-rule="evenodd" d="M47.4766 26.7301C43.6342 28.8551 38.8525 31.4992 31.68 31.4992C23.2559 31.4992 18.1006 27.18 13.9589 23.709C12.3664 22.3746 10.9245 21.1778 9.54686 20.4631C8.65355 20.2171 7.77234 20.0412 6.88971 19.9836C3.34823 19.7528 0 22.6059 0 26.5663C0 30.2065 2.89326 33.1564 6.46343 33.1564C8.48709 33.1564 10.2934 32.2091 11.4786 30.7239C12.1943 29.8279 12.0027 28.6047 11.1277 27.8927C10.5594 29.9753 8.68671 31.5029 6.46351 31.5029C3.78945 31.5029 1.62248 29.2931 1.62248 26.5668C1.62248 24.6954 2.66042 23.2708 4.16442 22.4217C12.8761 17.5034 17.2364 39.0308 31.841 39.1508C35.4084 39.1803 38.5727 37.9061 40.5335 35.9874C43.1133 33.4624 47.7585 25.5637 58.242 25.5637C57.7594 25.0602 57.2956 24.4932 56.7916 23.9879C53.5457 23.3749 50.8675 24.8548 47.476 26.7298L47.4766 26.7301Z" fill="white"/>
<path fill-rule="evenodd" clip-rule="evenodd" d="M59.9691 19.0261L59.2928 16.2877L58.7392 18.9649L56.6673 19.8591L58.6924 20.5917L59.3687 23.3301L59.9223 20.6547L61.9928 19.7592L59.9691 19.0261Z" fill="#FFB8B8"/>
<path fill-rule="evenodd" clip-rule="evenodd" d="M58.024 9.37235L58.5294 7.21921L60.0267 6.64867L58.3991 5.98171L57.9669 4L57.4634 6.1536L55.9657 6.72458L57.5933 7.39154L58.024 9.37235Z" fill="#FFB8B8"/>
<path fill-rule="evenodd" clip-rule="evenodd" d="M52.1406 16.8375L53.1017 14.7527L54.6767 13.3857L53.1017 12.1152L52.0682 10.0309L51.1071 12.1152L49.5307 13.4826L51.1071 14.7527L52.1406 16.8375Z" fill="#FFB8B8"/>
</g>
<defs>
<clipPath id="clip0_1_2">
<rect width="296" height="50" fill="white"/>
</clipPath>
</defs>
</svg>
